<svg width="30" height="26" viewBox="0 0 30 26" fill="none" xmlns="http://www.w3.org/2000/svg">
<path fill-rule="evenodd" clip-rule="evenodd" d="M0.299805 2.49844C0.299805 1.94148 0.521054 1.40734 0.91488 1.01351C1.30871 0.619687 1.84285 0.398437 2.3998 0.398438H27.5998C28.1568 0.398438 28.6909 0.619687 29.0847 1.01351C29.4786 1.40734 29.6998 1.94148 29.6998 2.49844C29.6998 3.05539 29.4786 3.58953 29.0847 3.98336C28.6909 4.37719 28.1568 4.59844 27.5998 4.59844H2.3998C1.84285 4.59844 1.30871 4.37719 0.91488 3.98336C0.521054 3.58953 0.299805 3.05539 0.299805 2.49844Z" fill="#141A52"/>
<path fill-rule="evenodd" clip-rule="evenodd" d="M0.299805 12.9984C0.299805 12.4415 0.521054 11.9073 0.91488 11.5135C1.30871 11.1197 1.84285 10.8984 2.3998 10.8984H27.5998C28.1568 10.8984 28.6909 11.1197 29.0847 11.5135C29.4786 11.9073 29.6998 12.4415 29.6998 12.9984C29.6998 13.5554 29.4786 14.0895 29.0847 14.4834C28.6909 14.8772 28.1568 15.0984 27.5998 15.0984H2.3998C1.84285 15.0984 1.30871 14.8772 0.91488 14.4834C0.521054 14.0895 0.299805 13.5554 0.299805 12.9984Z" fill="#141A52"/>
<path fill-rule="evenodd" clip-rule="evenodd" d="M12.8994 23.4984C12.8994 22.9415 13.1207 22.4073 13.5145 22.0135C13.9083 21.6197 14.4425 21.3984 14.9994 21.3984H27.5994C28.1564 21.3984 28.6905 21.6197 29.0843 22.0135C29.4782 22.4073 29.6994 22.9415 29.6994 23.4984C29.6994 24.0554 29.4782 24.5895 29.0843 24.9834C28.6905 25.3772 28.1564 25.5984 27.5994 25.5984H14.9994C14.4425 25.5984 13.9083 25.3772 13.5145 24.9834C13.1207 24.5895 12.8994 24.0554 12.8994 23.4984Z" fill="#141A52"/>
</svg>
